PathFileType	4	(X/Y/Z)	/Users/itak/Documents/Research/Walk-IL/dataset/trc/00101_00007.trc
DataRate	CameraRate	NumFrames	NumMarkers	Units	OrigDataRate	OrigDataStartFrame	OrigNumFrames
100.000000	100.000000	4	53	mm	100.000000	217	580
Frame#	Time	RPSI			LPSI			L3			STRN			T10			C7			CLAV			RBAK			LBAK			LSHO			LUPA			LAEL			LAOL			LWTS			LWPS			LFRA			LIFD			LHPS			LHTS			RSHO			RUPA			RAEL			RAOL			RWTS			RWPS			RFRA			RIFD			RHTS			RHPS			RBHD			LFHD			RFHD			LBHD			LHIP			RHIP			RASI			LASI			LKNE			LTHI			LANK			LTIP			LTOE			LMT1			LMT5			LHEE			RKNE			RTHI			RANK			RTIP			RTOE			RMT1			RMT5			RHEE			
		X1	Y1	Z1	X2	Y2	Z2	X3	Y3	Z3	X4	Y4	Z4	X5	Y5	Z5	X6	Y6	Z6	X7	Y7	Z7	X8	Y8	Z8	X9	Y9	Z9	X10	Y10	Z10	X11	Y11	Z11	X12	Y12	Z12	X13	Y13	Z13	X14	Y14	Z14	X15	Y15	Z15	X16	Y16	Z16	X17	Y17	Z17	X18	Y18	Z18	X19	Y19	Z19	X20	Y20	Z20	X21	Y21	Z21	X22	Y22	Z22	X23	Y23	Z23	X24	Y24	Z24	X25	Y25	Z25	X26	Y26	Z26	X27	Y27	Z27	X28	Y28	Z28	X29	Y29	Z29	X30	Y30	Z30	X31	Y31	Z31	X32	Y32	Z32	X33	Y33	Z33	X34	Y34	Z34	X35	Y35	Z35	X36	Y36	Z36	X37	Y37	Z37	X38	Y38	Z38	X39	Y39	Z39	X40	Y40	Z40	X41	Y41	Z41	X42	Y42	Z42	X43	Y43	Z43	X44	Y44	Z44	X45	Y45	Z45	X46	Y46	Z46	X47	Y47	Z47	X48	Y48	Z48	X49	Y49	Z49	X50	Y50	Z50	X51	Y51	Z51	X52	Y52	Z52	X53	Y53	Z53	

218	2.17	-1479.214111328125	1113.964233398438	-284.7644958496094	-1470.017944335938	1127.972534179688	-419.67431640625	-1479.443115234375	1161.849975585938	-353.6871948242188	-1240.652954101562	1346.203491210938	-342.9383544921875	-1500.37109375	1316.28759765625	-352.1603088378906	-1436.352905273438	1604.473999023438	-370.5457153320312	-1264.959228515625	1483.574462890625	-352.2982177734375	-1511.050048828125	1428.291748046875	-280.2621459960938	-1441.761352539062	1583.254760742188	-472.2203674316406	-1354.357421875	1560.208129882812	-537.1234741210938	-1383.977905273438	1430.075073242188	-606.0861206054688	-1389.854858398438	1209.900756835938	-628.1046752929688	-1457.372314453125	1203.398071289062	-572.4719848632812	-1311.479248046875	945.76123046875	-585.1182250976562	-1395.196899414062	926.4675903320312	-610.1565551757812	-1383.38134765625	1093.121826171875	-631.8087158203125	-1315.35302734375	752.9642333984375	-558.5828857421875	-1371.80908203125	849.1026000976562	-610.2782592773438	-1303.471069335938	854.8583984375	-594.7776489257812	-1389.4873046875	1586.090454101562	-186.8804168701172	-1414.617065429688	1516.88232421875	-121.7877426147461	-1453.265014648438	1225.554077148438	-90.88574981689453	-1458.559448242188	1221.934936523438	-187.9136810302734	-1325.08642578125	974.7631225585938	-92.45301055908203	-1401.6806640625	962.5162353515625	-64.01993560791016	-1435.46875	1151.267944335938	-72.60538482666016	-1311.271484375	778.12646484375	-103.4407272338867	-1302.343139648438	864.3482666015625	-83.12319183349609	-1371.796142578125	861.4155883789062	-55.39271926879883	-1405.264282226562	1760.919311523438	-291.4014892578125	-1247.798217773438	1839.629760742188	-425.3550415039062	-1248.5068359375	1845.494262695312	-295.4136657714844	-1411.9130859375	1757.573852539062	-427.014892578125	-1373.087158203125	1045.141723632812	-529.3040771484375	-1365.514770507812	1006.680297851562	-165.5650329589844	-1274.38818359375	1083.382080078125	-210.9265441894531	-1265.917114257812	1099.59521484375	-476.2907104492188	-1293.627197265625	540.1076049804688	-479.70751953125	-1333.302124023438	682.3859252929688	-517.2029418945312	-1346.82177734375	31.20614242553711	-441.5999755859375	-1362.115478515625	283.2588195800781	-494.2859497070312	-1119.960693359375	41.40206909179688	-378.9948425292969	-1197.188720703125	47.36207580566406	-346.8993225097656	-1222.201049804688	31.56656265258789	-464.2833251953125	-1416.2333984375	35.62599945068359	-381.0084228515625	-1307.303344726562	512.1852416992188	-207.0980072021484	-1319.891357421875	794.8452758789062	-183.4583740234375	-1718.105224609375	172.557861328125	-198.2619323730469	-1403.700073242188	409.3548583984375	-191.8061676025391	-1534.615966796875	55.16127395629883	-243.1684112548828	-1585.468383789062	69.44893646240234	-291.7852478027344	-1621.544799804688	85.28504943847656	-177.2510833740234	-1755.080932617188	216.8848571777344	-247.3573913574219	
219	2.18	-1471.40283203125	1114.290161132812	-285.5963134765625	-1462.253295898438	1128.1103515625	-420.5500793457031	-1471.90380859375	1162.073852539062	-354.7974243164062	-1233.309326171875	1347.15771484375	-343.3829956054688	-1492.865478515625	1316.741821289062	-353.554931640625	-1428.993774414062	1604.991088867188	-371.7361145019531	-1257.695922851562	1484.517944335938	-352.65234375	-1503.834228515625	1428.720336914062	-281.8198852539062	-1433.985595703125	1583.804443359375	-473.4490051269531	-1346.252685546875	1560.904541015625	-537.8630981445312	-1374.507568359375	1430.691528320312	-607.0842895507812	-1377.291381835938	1210.492797851562	-629.6777954101562	-1445.45556640625	1203.088256835938	-574.9122924804688	-1296.879638671875	946.9971923828125	-586.6214599609375	-1380.090209960938	927.0086059570312	-612.873291015625	-1369.568603515625	1093.819580078125	-633.679931640625	-1299.099365234375	754.0770874023438	-561.2327270507812	-1355.859741210938	849.9063110351562	-613.129638671875	-1287.846923828125	856.2443237304688	-596.7260131835938	-1383.040161132812	1586.696411132812	-187.8064422607422	-1408.484252929688	1517.389038085938	-122.9166259765625	-1447.115112304688	1225.922729492188	-93.20433807373047	-1451.178466796875	1222.4619140625	-190.3011474609375	-1318.712524414062	975.2195434570312	-93.32157897949219	-1395.880249023438	962.86328125	-66.17636108398438	-1429.513671875	1151.637817382812	-74.81593322753906	-1304.8505859375	778.488525390625	-104.1530532836914	-1296.142456054688	864.8413696289062	-83.60716247558594	-1366.054321289062	861.7880249023438	-57.21184158325195	-1397.594116210938	1761.7021484375	-292.1987915039062	-1239.871826171875	1840.133544921875	-425.9752502441406	-1240.67431640625	1846.038696289062	-296.055908203125	-1404.09814453125	1758.311767578125	-427.8148498535156	-1365.623046875	1044.99169921875	-529.9014282226562	-1356.493530273438	1007.856506347656	-165.8689422607422	-1266.454833984375	1084.596435546875	-211.9239807128906	-1258.270751953125	1100.163818359375	-477.2297668457031	-1290.04443359375	539.6981811523438	-480.4076538085938	-1328.486572265625	682.33544921875	-517.5590209960938	-1346.85302734375	31.2856273651123	-441.5663452148438	-1361.074340820312	283.4246520996094	-494.3197937011719	-1119.795654296875	41.22603607177734	-379.0743103027344	-1197.04638671875	47.39286804199219	-347.018310546875	-1222.174560546875	31.40116119384766	-464.5115356445312	-1416.2841796875	35.7762451171875	-380.9461364746094	-1289.470336914062	514.5213012695312	-207.7353363037109	-1308.238037109375	796.6248168945312	-183.9880981445312	-1696.081665039062	170.6619415283203	-197.9976654052734	-1384.69580078125	410.7577819824219	-192.2893829345703	-1509.7041015625	56.04989624023438	-241.1079254150391	-1560.894653320312	69.23767852783203	-289.7861328125	-1597.502075195312	86.23969268798828	-175.4848785400391	-1734.241455078125	213.2798309326172	-247.8453063964844	
220	2.19	-1463.611450195312	1114.651611328125	-286.3855285644531	-1454.547729492188	1128.221313476562	-421.3850708007812	-1464.407348632812	1162.289672851562	-355.8746032714844	-1226.0205078125	1348.110473632812	-343.8617248535156	-1485.406005859375	1317.168823242188	-354.9408874511719	-1421.7080078125	1605.4873046875	-372.8767700195312	-1250.464111328125	1485.4697265625	-352.995361328125	-1496.637329101562	1429.107788085938	-283.3418884277344	-1426.279174804688	1584.354614257812	-474.6255187988281	-1338.203857421875	1561.669677734375	-538.5518798828125	-1365.040161132812	1431.38232421875	-608.0421142578125	-1364.702392578125	1211.19384765625	-631.1388549804688	-1433.419189453125	1202.863403320312	-577.15966796875	-1282.205688476562	948.3431396484375	-588.0924072265625	-1364.916015625	927.68603515625	-615.4640502929688	-1355.707641601562	1094.639526367188	-635.4393310546875	-1282.871215820312	755.3023071289062	-563.78173828125	-1339.899047851562	850.84619140625	-615.8509521484375	-1272.217407226562	857.7142333984375	-598.6161499023438	-1376.619995117188	1587.26708984375	-188.6996307373047	-1402.36181640625	1517.871459960938	-124.0079956054688	-1441.030395507812	1226.293212890625	-95.38218688964844	-1443.9833984375	1223.001953125	-192.5376281738281	-1312.427978515625	975.6542358398438	-94.24372100830078	-1390.101440429688	963.1932983398438	-68.28465270996094	-1423.624389648438	1152.007446289062	-76.91757202148438	-1298.582153320312	778.8004150390625	-105.0647888183594	-1290.011596679688	865.3138427734375	-84.24462890625	-1360.328979492188	862.1238403320312	-59.08950424194336	-1389.971923828125	1762.539916992188	-292.9514465332031	-1231.953369140625	1840.583618164062	-426.5470886230469	-1232.842163085938	1846.533813476562	-296.6439819335938	-1396.331909179688	1759.099365234375	-428.5706787109375	-1358.085205078125	1044.83642578125	-530.5157470703125	-1347.412963867188	1009.080078125	-166.2473907470703	-1258.542724609375	1085.860961914062	-212.94921875	-1250.769287109375	1100.607421875	-478.1795349121094	-1286.416625976562	539.3124389648438	-480.9764099121094	-1323.615966796875	682.2738647460938	-517.7366943359375	-1346.884887695312	31.40606689453125	-441.5142211914062	-1359.895874023438	283.5909423828125	-494.2774047851562	-1119.577758789062	40.995849609375	-379.1314086914062	-1197.013427734375	47.34029388427734	-347.1116027832031	-1222.15966796875	31.2490177154541	-464.7218627929688	-1416.354125976562	35.97539901733398	-380.8750610351562	-1271.907592773438	517.1083374023438	-208.3508453369141	-1296.611694335938	798.578125	-184.4127807617188	-1673.1904296875	167.7377471923828	-197.7317199707031	-1365.700073242188	412.1954650878906	-192.7339477539062	-1483.79345703125	56.50288391113281	-239.1566772460938	-1535.292236328125	68.40921783447266	-287.8741760253906	-1572.468017578125	86.39286804199219	-173.8196868896484	-1712.513549804688	208.6150207519531	-248.2146301269531	
221	2.2	-1455.84716796875	1115.014404296875	-287.1119079589844	-1446.885986328125	1128.299072265625	-422.1557922363281	-1456.9365234375	1162.48876953125	-356.8923034667969	-1218.769775390625	1349.025024414062	-344.3841857910156	-1477.989624023438	1317.560913085938	-356.3068237304688	-1414.472534179688	1605.947265625	-373.9730529785156	-1243.247802734375	1486.392456054688	-353.3392028808594	-1489.453857421875	1429.441528320312	-284.8370361328125	-1418.623413085938	1584.885009765625	-475.7582397460938	-1330.190185546875	1562.474243164062	-539.199951171875	-1355.571411132812	1432.120483398438	-608.9697265625	-1352.142700195312	1211.973999023438	-632.50537109375	-1421.302124023438	1202.704467773438	-579.2137451171875	-1267.480346679688	949.78759765625	-589.5402221679688	-1349.696411132812	928.4689331054688	-617.892822265625	-1341.8564453125	1095.549560546875	-637.092041015625	-1266.612670898438	756.63330078125	-566.1990966796875	-1323.9375	851.8939208984375	-618.4005737304688	-1256.575561523438	859.2678833007812	-600.4395751953125	-1370.20458984375	1587.771728515625	-189.5679473876953	-1396.221313476562	1518.297241210938	-125.0673980712891	-1434.991943359375	1226.636474609375	-97.39052581787109	-1436.997436523438	1223.51953125	-194.5960388183594	-1306.229370117188	976.0421142578125	-95.24221038818359	-1384.314575195312	963.4783935546875	-70.31229400634766	-1417.7744140625	1152.345581054688	-78.88394165039062	-1292.447875976562	779.0339965820312	-106.2049789428711	-1283.926025390625	865.734375	-85.08137512207031	-1354.57763671875	862.3948364257812	-61.00187683105469	-1382.396362304688	1763.396484375	-293.6570739746094	-1224.050903320312	1840.973754882812	-427.0686645507812	-1225.026245117188	1846.964721679688	-297.1715698242188	-1388.617553710938	1759.9111328125	-429.281494140625	-1350.506469726562	1044.664184570312	-531.1221313476562	-1338.326293945312	1010.300537109375	-166.7395172119141	-1250.651245117188	1087.131469726562	-213.9915618896484	-1243.3876953125	1100.9111328125	-479.135009765625	-1282.730102539062	538.9417724609375	-481.4485168457031	-1318.66748046875	682.2020263671875	-517.7675170898438	-1346.913330078125	31.55211067199707	-441.4487609863281	-1358.544189453125	283.7508239746094	-494.1893310546875	-1119.310668945312	40.7229118347168	-379.1710205078125	-1197.097900390625	47.20105743408203	-347.1922302246094	-1222.152587890625	31.10901260375977	-464.9144897460938	-1416.44384765625	36.21642684936523	-380.8124694824219	-1254.626098632812	519.885986328125	-208.9654998779297	-1284.998168945312	800.650146484375	-184.7338409423828	-1649.459594726562	163.8498382568359	-197.4315643310547	-1346.734741210938	413.6253662109375	-193.1634216308594	-1456.931274414062	56.58036804199219	-237.3616333007812	-1508.719848632812	67.07463836669922	-286.0828857421875	-1546.499755859375	85.80325317382812	-172.278076171875	-1689.938110351562	202.9661560058594	-248.4219818115234	
